<mxfile host="Electron" agent="Mozilla/5.0 (Macintosh; Intel Mac OS X 10_15_7) AppleWebKit/537.36 (KHTML, like Gecko) draw.io/28.0.6 Chrome/138.0.7204.100 Electron/37.2.3 Safari/537.36" version="28.0.6">
  <diagram name="Page-1" id="xrCxCM5AQ6zRMcbCNqW_">
    <mxGraphModel dx="2276" dy="1959" grid="1" gridSize="10" guides="1" tooltips="1" connect="1" arrows="1" fold="1" page="1" pageScale="1" pageWidth="850" pageHeight="1100" math="0" shadow="0">
      <root>
        <mxCell id="0" />
        <mxCell id="1" parent="0" />
        <mxCell id="6IOhxhYm3B8L-OgdleSh-1" value="" style="rounded=0;whiteSpace=wrap;html=1;gradientColor=default;fillColor=none;strokeColor=#B3B3B3;movable=1;resizable=1;rotatable=1;deletable=1;editable=1;locked=0;connectable=1;" vertex="1" parent="1">
          <mxGeometry x="-803.39" y="120" width="163.39" height="680" as="geometry" />
        </mxCell>
        <mxCell id="6IOhxhYm3B8L-OgdleSh-2" value="&lt;font style=&quot;font-size: 18px;&quot;&gt;Sources&lt;/font&gt;" style="rounded=0;whiteSpace=wrap;html=1;strokeColor=none;" vertex="1" parent="1">
          <mxGeometry x="-756.69" y="90" width="70" height="50" as="geometry" />
        </mxCell>
        <mxCell id="6IOhxhYm3B8L-OgdleSh-3" value="" style="rounded=0;whiteSpace=wrap;html=1;fillColor=none;gradientColor=default;" vertex="1" parent="1">
          <mxGeometry x="-600" y="120" width="640" height="680" as="geometry" />
        </mxCell>
        <mxCell id="6IOhxhYm3B8L-OgdleSh-4" value="High Level Architecture" style="text;html=1;align=center;verticalAlign=middle;resizable=0;points=[];autosize=1;strokeColor=none;fillColor=none;fontSize=25;" vertex="1" parent="1">
          <mxGeometry x="-830" y="-7" width="280" height="40" as="geometry" />
        </mxCell>
        <mxCell id="6IOhxhYm3B8L-OgdleSh-5" value="&lt;font style=&quot;font-size: 18px;&quot;&gt;Data Warehouse&lt;/font&gt;" style="rounded=0;whiteSpace=wrap;html=1;strokeColor=none;" vertex="1" parent="1">
          <mxGeometry x="-390" y="90" width="140" height="50" as="geometry" />
        </mxCell>
        <mxCell id="6IOhxhYm3B8L-OgdleSh-6" value="" style="rounded=0;whiteSpace=wrap;html=1;gradientColor=default;fillColor=none;strokeColor=#B3B3B3;" vertex="1" parent="1">
          <mxGeometry x="80" y="120" width="160" height="680" as="geometry" />
        </mxCell>
        <mxCell id="6IOhxhYm3B8L-OgdleSh-7" value="&lt;font style=&quot;font-size: 18px;&quot;&gt;Consumer&lt;/font&gt;" style="rounded=0;whiteSpace=wrap;html=1;strokeColor=none;" vertex="1" parent="1">
          <mxGeometry x="110" y="90" width="80" height="50" as="geometry" />
        </mxCell>
        <mxCell id="6IOhxhYm3B8L-OgdleSh-8" value="&lt;font style=&quot;font-size: 15px;&quot;&gt;Bronze Layer&lt;/font&gt;" style="rounded=0;whiteSpace=wrap;html=1;fillColor=#ffe6cc;strokeColor=#d79b00;" vertex="1" parent="1">
          <mxGeometry x="-560" y="160" width="160" height="30" as="geometry" />
        </mxCell>
        <mxCell id="6IOhxhYm3B8L-OgdleSh-9" value="" style="rounded=0;whiteSpace=wrap;html=1;fillColor=none;strokeColor=#d79b00;" vertex="1" parent="1">
          <mxGeometry x="-560" y="200" width="160" height="560" as="geometry" />
        </mxCell>
        <mxCell id="6IOhxhYm3B8L-OgdleSh-10" value="&lt;font style=&quot;font-size: 15px;&quot;&gt;Silver Layer&lt;/font&gt;" style="rounded=0;whiteSpace=wrap;html=1;fillColor=#f5f5f5;strokeColor=#666666;fontColor=#333333;" vertex="1" parent="1">
          <mxGeometry x="-360" y="160" width="160" height="30" as="geometry" />
        </mxCell>
        <mxCell id="6IOhxhYm3B8L-OgdleSh-11" value="" style="rounded=0;whiteSpace=wrap;html=1;fillColor=none;strokeColor=#666666;fontColor=#333333;" vertex="1" parent="1">
          <mxGeometry x="-360" y="200" width="160" height="560" as="geometry" />
        </mxCell>
        <mxCell id="6IOhxhYm3B8L-OgdleSh-12" value="" style="rounded=0;whiteSpace=wrap;html=1;fillColor=none;strokeColor=#d6b656;" vertex="1" parent="1">
          <mxGeometry x="-150" y="200" width="160" height="560" as="geometry" />
        </mxCell>
        <mxCell id="6IOhxhYm3B8L-OgdleSh-13" value="&lt;font style=&quot;font-size: 15px;&quot;&gt;Gold Layer&lt;/font&gt;" style="rounded=0;whiteSpace=wrap;html=1;fillColor=#fff2cc;strokeColor=#d6b656;" vertex="1" parent="1">
          <mxGeometry x="-150" y="160" width="160" height="30" as="geometry" />
        </mxCell>
        <mxCell id="6IOhxhYm3B8L-OgdleSh-14" value="CRM" style="image;aspect=fixed;html=1;points=[];align=center;fontSize=12;image=img/lib/azure2/general/Folder_Blank.svg;" vertex="1" parent="1">
          <mxGeometry x="-751.19" y="200" width="61.61" height="50" as="geometry" />
        </mxCell>
        <mxCell id="6IOhxhYm3B8L-OgdleSh-15" value="" style="image;aspect=fixed;html=1;points=[];align=center;fontSize=12;image=img/lib/azure2/general/Files.svg;" vertex="1" parent="1">
          <mxGeometry x="-713.58" y="230" width="24" height="26.25" as="geometry" />
        </mxCell>
        <mxCell id="6IOhxhYm3B8L-OgdleSh-16" value="ERP" style="image;aspect=fixed;html=1;points=[];align=center;fontSize=12;image=img/lib/azure2/general/Folder_Blank.svg;" vertex="1" parent="1">
          <mxGeometry x="-751.19" y="330" width="61.61" height="50" as="geometry" />
        </mxCell>
        <mxCell id="6IOhxhYm3B8L-OgdleSh-19" value="" style="image;aspect=fixed;html=1;points=[];align=center;fontSize=12;image=img/lib/azure2/general/Files.svg;" vertex="1" parent="1">
          <mxGeometry x="-713.58" y="353.75" width="24" height="26.25" as="geometry" />
        </mxCell>
        <mxCell id="6IOhxhYm3B8L-OgdleSh-24" value="" style="endArrow=none;html=1;rounded=0;" edge="1" parent="1">
          <mxGeometry width="50" height="50" relative="1" as="geometry">
            <mxPoint x="-765" y="440" as="sourcePoint" />
            <mxPoint x="-675" y="440" as="targetPoint" />
          </mxGeometry>
        </mxCell>
        <mxCell id="6IOhxhYm3B8L-OgdleSh-25" value="&lt;b&gt;Object Type:&lt;/b&gt; CSV Files&lt;div&gt;&lt;b&gt;Interface:&lt;/b&gt; Files in Folders&lt;/div&gt;" style="text;html=1;align=center;verticalAlign=middle;whiteSpace=wrap;rounded=0;" vertex="1" parent="1">
          <mxGeometry x="-800" y="450" width="150" height="30" as="geometry" />
        </mxCell>
        <mxCell id="6IOhxhYm3B8L-OgdleSh-26" value="" style="html=1;verticalLabelPosition=bottom;align=center;labelBackgroundColor=#ffffff;verticalAlign=top;strokeWidth=2;strokeColor=#d79b00;shadow=0;dashed=0;shape=mxgraph.ios7.icons.data;fillColor=#ffe6cc;" vertex="1" parent="1">
          <mxGeometry x="-515" y="256.25" width="70" height="70" as="geometry" />
        </mxCell>
        <mxCell id="6IOhxhYm3B8L-OgdleSh-27" value="" style="shape=flexArrow;endArrow=classic;html=1;rounded=0;exitX=1.006;exitY=0.443;exitDx=0;exitDy=0;exitPerimeter=0;fillColor=#dae8fc;strokeColor=#6c8ebf;" edge="1" parent="1" source="6IOhxhYm3B8L-OgdleSh-1" target="6IOhxhYm3B8L-OgdleSh-3">
          <mxGeometry width="50" height="50" relative="1" as="geometry">
            <mxPoint x="-640" y="345" as="sourcePoint" />
            <mxPoint x="-590" y="297" as="targetPoint" />
          </mxGeometry>
        </mxCell>
        <mxCell id="6IOhxhYm3B8L-OgdleSh-28" value="" style="html=1;verticalLabelPosition=bottom;align=center;labelBackgroundColor=#ffffff;verticalAlign=top;strokeWidth=2;strokeColor=#666666;shadow=0;dashed=0;shape=mxgraph.ios7.icons.data;fillColor=#f5f5f5;fontColor=#333333;" vertex="1" parent="1">
          <mxGeometry x="-320" y="260" width="70" height="70" as="geometry" />
        </mxCell>
        <mxCell id="6IOhxhYm3B8L-OgdleSh-29" value="" style="html=1;verticalLabelPosition=bottom;align=center;labelBackgroundColor=#ffffff;verticalAlign=top;strokeWidth=2;strokeColor=#d6b656;shadow=0;dashed=0;shape=mxgraph.ios7.icons.data;fillColor=#fff2cc;" vertex="1" parent="1">
          <mxGeometry x="-105" y="260" width="70" height="70" as="geometry" />
        </mxCell>
        <mxCell id="6IOhxhYm3B8L-OgdleSh-30" value="Raw Data" style="text;html=1;align=center;verticalAlign=middle;whiteSpace=wrap;rounded=0;" vertex="1" parent="1">
          <mxGeometry x="-510" y="340" width="60" height="30" as="geometry" />
        </mxCell>
        <mxCell id="6IOhxhYm3B8L-OgdleSh-31" value="Cleaned, Standardized Data" style="text;html=1;align=center;verticalAlign=middle;whiteSpace=wrap;rounded=0;" vertex="1" parent="1">
          <mxGeometry x="-340" y="340" width="110" height="30" as="geometry" />
        </mxCell>
        <mxCell id="6IOhxhYm3B8L-OgdleSh-32" value="Business-Ready Data" style="text;html=1;align=center;verticalAlign=middle;whiteSpace=wrap;rounded=0;" vertex="1" parent="1">
          <mxGeometry x="-120" y="340" width="100" height="30" as="geometry" />
        </mxCell>
        <mxCell id="6IOhxhYm3B8L-OgdleSh-33" value="" style="endArrow=none;html=1;rounded=0;" edge="1" parent="1">
          <mxGeometry width="50" height="50" relative="1" as="geometry">
            <mxPoint x="-525" y="399.5" as="sourcePoint" />
            <mxPoint x="-435" y="399.5" as="targetPoint" />
          </mxGeometry>
        </mxCell>
        <mxCell id="6IOhxhYm3B8L-OgdleSh-34" value="" style="endArrow=none;html=1;rounded=0;" edge="1" parent="1">
          <mxGeometry width="50" height="50" relative="1" as="geometry">
            <mxPoint x="-330" y="399.5" as="sourcePoint" />
            <mxPoint x="-240" y="399.5" as="targetPoint" />
          </mxGeometry>
        </mxCell>
        <mxCell id="6IOhxhYm3B8L-OgdleSh-35" value="" style="endArrow=none;html=1;rounded=0;" edge="1" parent="1">
          <mxGeometry width="50" height="50" relative="1" as="geometry">
            <mxPoint x="-115" y="399.5" as="sourcePoint" />
            <mxPoint x="-25" y="399.5" as="targetPoint" />
          </mxGeometry>
        </mxCell>
        <mxCell id="6IOhxhYm3B8L-OgdleSh-36" value="&lt;b&gt;Object Type:&lt;/b&gt; Tables" style="text;html=1;align=center;verticalAlign=middle;whiteSpace=wrap;rounded=0;" vertex="1" parent="1">
          <mxGeometry x="-545" y="420" width="130" height="30" as="geometry" />
        </mxCell>
        <mxCell id="6IOhxhYm3B8L-OgdleSh-38" value="&lt;b&gt;Object Type:&lt;/b&gt; Tables" style="text;html=1;align=center;verticalAlign=middle;whiteSpace=wrap;rounded=0;" vertex="1" parent="1">
          <mxGeometry x="-345" y="420" width="130" height="30" as="geometry" />
        </mxCell>
        <mxCell id="6IOhxhYm3B8L-OgdleSh-39" value="&lt;b&gt;Object Type:&lt;/b&gt; Views" style="text;html=1;align=center;verticalAlign=middle;whiteSpace=wrap;rounded=0;" vertex="1" parent="1">
          <mxGeometry x="-140" y="420" width="130" height="30" as="geometry" />
        </mxCell>
        <mxCell id="6IOhxhYm3B8L-OgdleSh-40" value="&lt;b&gt;Load:&lt;/b&gt;&lt;div&gt;&lt;ul&gt;&lt;li&gt;Batch Processing&lt;/li&gt;&lt;li&gt;Full Load&lt;/li&gt;&lt;li&gt;Truncate &amp;amp; Insert&lt;/li&gt;&lt;/ul&gt;&lt;/div&gt;" style="text;html=1;align=left;verticalAlign=middle;whiteSpace=wrap;rounded=0;" vertex="1" parent="1">
          <mxGeometry x="-545" y="460" width="190" height="60" as="geometry" />
        </mxCell>
        <mxCell id="6IOhxhYm3B8L-OgdleSh-41" value="&lt;b&gt;Load:&lt;/b&gt;&lt;div&gt;&lt;ul&gt;&lt;li&gt;Batch Processing&lt;/li&gt;&lt;li&gt;Full Load&lt;/li&gt;&lt;li&gt;Truncate &amp;amp; Insert&lt;/li&gt;&lt;/ul&gt;&lt;/div&gt;" style="text;html=1;align=left;verticalAlign=middle;whiteSpace=wrap;rounded=0;" vertex="1" parent="1">
          <mxGeometry x="-355" y="460" width="190" height="60" as="geometry" />
        </mxCell>
        <mxCell id="6IOhxhYm3B8L-OgdleSh-42" value="&lt;b&gt;No Load&lt;/b&gt;" style="text;html=1;align=left;verticalAlign=middle;whiteSpace=wrap;rounded=0;" vertex="1" parent="1">
          <mxGeometry x="-130" y="430" width="190" height="60" as="geometry" />
        </mxCell>
        <mxCell id="6IOhxhYm3B8L-OgdleSh-43" value="&lt;b&gt;No Transformation&lt;/b&gt;" style="text;html=1;align=left;verticalAlign=middle;whiteSpace=wrap;rounded=0;" vertex="1" parent="1">
          <mxGeometry x="-545" y="530" width="130" height="30" as="geometry" />
        </mxCell>
        <mxCell id="6IOhxhYm3B8L-OgdleSh-45" value="&lt;b&gt;Transformations:&lt;/b&gt;&lt;div&gt;&lt;ul&gt;&lt;li&gt;Data Cleaning&lt;/li&gt;&lt;li&gt;Data Standardisation&lt;/li&gt;&lt;li&gt;Data Normalisation&lt;/li&gt;&lt;li&gt;Derived Columns&lt;/li&gt;&lt;li&gt;Data Enrichment&lt;/li&gt;&lt;/ul&gt;&lt;/div&gt;" style="text;html=1;align=left;verticalAlign=middle;whiteSpace=wrap;rounded=0;" vertex="1" parent="1">
          <mxGeometry x="-360" y="580" width="300" height="30" as="geometry" />
        </mxCell>
        <mxCell id="6IOhxhYm3B8L-OgdleSh-47" value="" style="shape=flexArrow;endArrow=classic;html=1;rounded=0;exitX=1.006;exitY=0.443;exitDx=0;exitDy=0;exitPerimeter=0;fillColor=#dae8fc;strokeColor=#6c8ebf;" edge="1" parent="1">
          <mxGeometry width="50" height="50" relative="1" as="geometry">
            <mxPoint x="-404" y="326.25" as="sourcePoint" />
            <mxPoint x="-355" y="326.25" as="targetPoint" />
          </mxGeometry>
        </mxCell>
        <mxCell id="6IOhxhYm3B8L-OgdleSh-48" value="" style="shape=flexArrow;endArrow=classic;html=1;rounded=0;exitX=1.006;exitY=0.443;exitDx=0;exitDy=0;exitPerimeter=0;fillColor=#dae8fc;strokeColor=#6c8ebf;" edge="1" parent="1">
          <mxGeometry width="50" height="50" relative="1" as="geometry">
            <mxPoint x="-199" y="326.25" as="sourcePoint" />
            <mxPoint x="-150" y="326.25" as="targetPoint" />
          </mxGeometry>
        </mxCell>
        <mxCell id="6IOhxhYm3B8L-OgdleSh-49" value="" style="shape=flexArrow;endArrow=classic;html=1;rounded=0;exitX=1.006;exitY=0.443;exitDx=0;exitDy=0;exitPerimeter=0;fillColor=#dae8fc;strokeColor=#6c8ebf;" edge="1" parent="1">
          <mxGeometry width="50" height="50" relative="1" as="geometry">
            <mxPoint x="40" y="294.5" as="sourcePoint" />
            <mxPoint x="89" y="294.5" as="targetPoint" />
          </mxGeometry>
        </mxCell>
        <mxCell id="6IOhxhYm3B8L-OgdleSh-50" value="&lt;div style=&quot;text-align: left;&quot;&gt;&lt;span style=&quot;background-color: transparent; color: light-dark(rgb(0, 0, 0), rgb(255, 255, 255));&quot;&gt;&lt;b&gt;Transformations:&lt;/b&gt;&lt;/span&gt;&lt;/div&gt;&lt;div style=&quot;text-align: left;&quot;&gt;&lt;ul&gt;&lt;li&gt;&lt;span style=&quot;background-color: transparent; color: light-dark(rgb(0, 0, 0), rgb(255, 255, 255));&quot;&gt;Data Integrations&lt;/span&gt;&lt;/li&gt;&lt;li&gt;&lt;span style=&quot;background-color: transparent; color: light-dark(rgb(0, 0, 0), rgb(255, 255, 255));&quot;&gt;Aggregations&lt;/span&gt;&lt;/li&gt;&lt;li&gt;&lt;span style=&quot;background-color: transparent; color: light-dark(rgb(0, 0, 0), rgb(255, 255, 255));&quot;&gt;Business Logics&lt;/span&gt;&lt;/li&gt;&lt;/ul&gt;&lt;/div&gt;&lt;div style=&quot;text-align: left;&quot;&gt;&lt;b&gt;&lt;br&gt;&lt;/b&gt;&lt;/div&gt;" style="text;html=1;align=center;verticalAlign=middle;whiteSpace=wrap;rounded=0;" vertex="1" parent="1">
          <mxGeometry x="-150" y="520" width="160" height="30" as="geometry" />
        </mxCell>
        <mxCell id="6IOhxhYm3B8L-OgdleSh-51" value="&lt;b&gt;Data Model: &lt;/b&gt;None (as-in)" style="text;html=1;align=center;verticalAlign=middle;whiteSpace=wrap;rounded=0;" vertex="1" parent="1">
          <mxGeometry x="-565" y="600" width="165" height="30" as="geometry" />
        </mxCell>
        <mxCell id="6IOhxhYm3B8L-OgdleSh-52" value="&lt;b&gt;Data Model: &lt;/b&gt;None (as-in)" style="text;html=1;align=center;verticalAlign=middle;whiteSpace=wrap;rounded=0;" vertex="1" parent="1">
          <mxGeometry x="-365" y="660" width="165" height="30" as="geometry" />
        </mxCell>
        <mxCell id="6IOhxhYm3B8L-OgdleSh-53" value="&lt;div style=&quot;text-align: left;&quot;&gt;&lt;b style=&quot;background-color: transparent; color: light-dark(rgb(0, 0, 0), rgb(255, 255, 255));&quot;&gt;Data Model:&lt;/b&gt;&lt;/div&gt;&lt;div style=&quot;&quot;&gt;&lt;ul&gt;&lt;li style=&quot;text-align: left;&quot;&gt;Star Schema&lt;/li&gt;&lt;li style=&quot;text-align: left;&quot;&gt;Flat Table&lt;/li&gt;&lt;li style=&quot;text-align: left;&quot;&gt;Aggregated Table&lt;/li&gt;&lt;/ul&gt;&lt;/div&gt;" style="text;html=1;align=center;verticalAlign=middle;whiteSpace=wrap;rounded=0;" vertex="1" parent="1">
          <mxGeometry x="-155" y="600" width="165" height="30" as="geometry" />
        </mxCell>
        <mxCell id="6IOhxhYm3B8L-OgdleSh-55" value="" style="image;aspect=fixed;html=1;points=[];align=center;fontSize=12;image=img/lib/azure2/analytics/Power_BI_Embedded.svg;" vertex="1" parent="1">
          <mxGeometry x="100" y="261" width="44.25" height="59" as="geometry" />
        </mxCell>
        <mxCell id="6IOhxhYm3B8L-OgdleSh-56" value="" style="image;html=1;image=img/lib/clip_art/finance/Graph_128x128.png" vertex="1" parent="1">
          <mxGeometry x="144.25" y="250" width="70" height="80" as="geometry" />
        </mxCell>
        <mxCell id="6IOhxhYm3B8L-OgdleSh-57" value="Bi &amp;amp; Reporting" style="text;html=1;align=center;verticalAlign=middle;whiteSpace=wrap;rounded=0;" vertex="1" parent="1">
          <mxGeometry x="110" y="330" width="90" height="30" as="geometry" />
        </mxCell>
        <mxCell id="6IOhxhYm3B8L-OgdleSh-58" value="" style="sketch=0;outlineConnect=0;fontColor=#232F3E;gradientColor=none;fillColor=#8C4FFF;strokeColor=none;dashed=0;verticalLabelPosition=bottom;verticalAlign=top;align=center;html=1;fontSize=12;fontStyle=0;aspect=fixed;pointerEvents=1;shape=mxgraph.aws4.athena_data_source_connectors;" vertex="1" parent="1">
          <mxGeometry x="110" y="407.84" width="89" height="90.16" as="geometry" />
        </mxCell>
        <mxCell id="6IOhxhYm3B8L-OgdleSh-59" value="Ad-Hoc&lt;div&gt;SQL Queries&lt;/div&gt;" style="text;html=1;align=center;verticalAlign=middle;whiteSpace=wrap;rounded=0;" vertex="1" parent="1">
          <mxGeometry x="110" y="520" width="100" height="30" as="geometry" />
        </mxCell>
      </root>
    </mxGraphModel>
  </diagram>
</mxfile>
